<svg xmlns="http://www.w3.org/2000/svg" viewBox="0 0 3225.41 492.71"><path d="M1779.56 459.68l-39.2-44.19c24.6-5 32.73-22.93 32.73-40.68 0-22.37-16.09-42.71-46.59-42.89-20.53 0-41-.19-61.57-.19v129.61h24.4v-43.26h23.49l37.71 43.26h29zm-53.06-105c15.34 0 22.18 10.35 22.18 20.71s-6.65 20.7-22.18 20.7h-37.17v-41.43zM1997.82 437.3h-72.67v-29.21h70.08v-22.74h-70.08v-29.77h72.67v-23.66h-96.89v129.42h96.89zM2134.08 331.92v129.42h91v-22.56h-66.56V331.92zM2416.85 329.33c-44.74 0-66.56 34.2-66.56 68.22s21.08 66.75 66.56 66.75 66-33.47 66.38-66.93c.37-33.84-21.82-68.04-66.38-68.04zm0 22.18c30.51 0 42.71 24.41 42.34 46.23-.37 21.26-11.83 44.19-42.34 44.19s-42-22.75-42.52-44c-.56-21.82 12-46.41 42.52-46.41zM2721.57 461.34h26.63l-58.06-129.42h-26.62l-58.06 129.42h26.44l11.1-24.41h67.67zm-20.7-47.15h-48.08l24-55.1zM2929.62 331.92h-50.84v129.42h50.84c45.3 0 65.27-33.1 64.71-65.82-.55-31.99-20.33-63.6-64.71-63.6zM2903 355h26.62c28.11 0 39.94 20.15 40.49 40.3.56 21.08-11.09 42.53-40.49 42.53H2903zM3221.34 353.18c-9.8-20-30.69-25.7-50.84-25.7-23.86.18-50.11 11.09-50.11 37.72 0 29 24.41 36.05 50.85 39.19 17.19 1.85 30 6.84 30 19.05 0 14.05-14.42 19.41-29.77 19.41-15.72 0-30.69-6.29-36.42-20.52l-20.34 10.54c9.61 23.66 30 31.8 56.39 31.8 28.84 0 54.36-12.39 54.36-41.23 0-30.88-25.15-37.91-52.14-41.23-15.53-1.85-28.84-5-28.84-16.27 0-9.62 8.69-17.2 26.81-17.2 14.05 0 26.25 7 30.69 14.42z" fill="#c9d6e2"/><path d="M1701.41 143.39h56.69c15.16 0 36.76 9.26 36.76 26.94 0 18.52-21.6 23.57-36.76 23.57h-56.69zm0-77.74h56.69c23.57 0 30.87 15.15 30.87 24.13 0 11.23-7.58 21-30.87 21h-56.69zM1758.1 32h-93.17v196.42h93.17c40.69 0 73.53-14 73.53-57.81 0-12.35-8.42-36.77-31.43-43.78 18.24-8.14 25.53-22.73 25.53-37.89 0-39.57-28.9-57-67.63-57zM2027.08 228.42h40.42L1979.38 32H1939l-88.12 196.45H1891l16.84-37h102.72zm-31.43-71.56h-73l36.48-83.63zM2271.15 225.89l-59.49-67.07c37.32-7.58 49.67-34.8 49.67-61.74 0-34-24.42-64.83-70.72-65.11-31.15 0-62.3-.28-93.45-.28v196.73h37v-65.67h35.64l57.25 65.67h44.06zm-80.54-159.4c23.29 0 33.68 15.72 33.68 31.43s-10.11 31.43-33.68 31.43h-56.41V66.49zM2336.73 228.42V32H2300v196.42zM2540.68 228.42h40.41L2493 32h-40.41l-88.13 196.45h40.14l16.83-37h102.72zm-31.44-71.56h-73l36.48-83.63zM2629.47 228.42h37.05V65.65h62.3V32h-161.65v33.65h62.3zM2938.77 225.89l-59.5-67.07c37.33-7.58 49.67-34.8 49.67-61.74 0-34-24.41-64.83-70.72-65.11-31.15 0-62.3-.28-93.45-.28v196.73h37.05v-65.67h35.64l57.25 65.67h44.06zm-80.55-159.4c23.3 0 33.68 15.72 33.68 31.43s-10.1 31.43-33.68 31.43h-56.4V66.49zM3004.34 228.42V32h-36.76v196.42zM3200.15 178.19c-12.91 12.91-32.27 19.92-49.39 19.92-48.55 0-67.35-34-67.63-66.51-.29-32.83 20.2-68.2 67.63-68.2 17.12 0 34.52 5.9 47.43 18.53l24.69-23.86c-20.2-19.92-45.46-30-72.12-30-71 0-104.4 52.2-104.12 103.56.28 51.08 31.15 101.31 104.12 101.31 28.34 0 54.44-9.26 74.65-29.19z"/><path d="M224.75 85.18v32.61h566a62.13 62.13 0 01-1.95-16.07 61 61 0 012.09-16.54z" fill="silver"/><path d="M0 119h212.2s-.51-14.38 0-34L16.52 59.59c5.85 9.21 13.68 9.75 23.15 11.14 44 6.41 88.19 11 130.83 23.13-17.31 0-34.62.18-51.93.32 0 0-98.09-3.67-118.57 24.8z" fill="#c9d6e2"/><path d="M1021.68 0l.06 9c0 27.1-17 29.48-17 29.48-71.34 26-116.61 28.29-191.05 34.47-7.86 3.39-11.71 16-11.71 28.8s3.85 25.4 11.71 28.79c74.44 6.19 119.71 8.45 191.05 34.47 0 0 17 2.38 17 29.48l-.06 9h8.3V0z"/><path d="M1432.13 180.14c-3.55 9.1-97 35.85-150.5 26.89q-4.43-.74-8.45-1.81c-51.4-13.78-41.07 45.33-41.07 45.33s28 119 14.12 185c-2.14 11.3-7.91 21.72-16 30.48-21.6 23.52-59.64 35.07-88.11 19.63l6-251.95s.59-19-15.41-30.17c-30 40.18-61.67 81.43-61.67 81.43s-67.68 90.24-87.59 111.48-35.75-18.55-35.75-18.55-1.32-.67 13.27-10c48.64-47.54 89.44-115.57 126.59-180.89-23.43-8.56-45.53-18-45.53-18l.1-127.4c107.58-.08 210.33 1.64 313.23.05 3.12-.11 6.33-.16 9.59-.15 22.76.08 47.39 3.42 54.91 16.44 15.05 26.12 16 112.59 12.27 122.19z" fill="#fafafa"/><path d="M1281.63 207q-4.43-.74-8.45-1.81c-49-13.13-41.91 39.87-41.13 44.94 0 .24.08.46.13.69 1.54 6.65 27.54 120.61 14 184.73-2.14 11.3-7.91 21.72-16 30.48-6.83-7.45-9.44-23.61-10.34-31.5a18.49 18.49 0 01.67-7.28c10.25-34.88-36-216.88-35.11-228.35.59-7.39 5.61-11.26 9.3-13.13a9.62 9.62 0 016.93-.7z"/><rect x="1073.07" y="93.23" width="50.78" height="26.88" rx="12"/></svg>