<svg xmlns="http://www.w3.org/2000/svg"><path d="M28.314 6.779l1.407 1.55 1.354-1.55h2.892l-2.823 3.178 2.865 3.2H31l-1.393-1.563-1.381 1.563h-2.9l2.84-3.191-2.84-3.191zM25.321 6.779v2.157h-3.216v1.978h3.216v2.247h-5.58V3.108h5.58v2.241h-3.216v1.43z" fill="#ff5900"/><path d="M17.388 3.108v4.114h-.026a2.385 2.385 0 00-1.928-.807 3.253 3.253 0 00-3.122 2.443 3.364 3.364 0 00-3.455-2.472 3.511 3.511 0 00-3.191 1.71V6.779h-3v-1.43h3.273V3.108H0v10.053h2.67V8.936h2.662a4.006 4.006 0 00-.122.994 3.512 3.512 0 003.647 3.568 3.435 3.435 0 003.451-2.279h-2.289a1.148 1.148 0 01-1.163.573 1.375 1.375 0 01-1.336-1.367h4.66a3.391 3.391 0 003.28 3.1 2.281 2.281 0 001.9-1.016h.026v.651h2.354V3.108zM7.595 8.965a1.288 1.288 0 011.262-1.057 1.226 1.226 0 011.274 1.056H7.595zm8.364 2.666a1.526 1.526 0 01-1.407-1.653c0-.9.469-1.77 1.407-1.77.973 0 1.36.868 1.36 1.77 0 .855-.411 1.653-1.36 1.653z" fill="#2a007c"/><g><path d="M39.229 5.187l.063 7.177 1.613 1.992 4.838 2.561 5.944-2.909 1.233-2.94-.126-9.518-4.49-.126-4.679.759-4.268 2.466z" fill="#301506" fill-rule="evenodd"/><path d="M46.158 0a15.477 15.477 0 00-7.306 1.621v8.6a5.452 5.452 0 001.966 4.379 33.981 33.981 0 005.34 2.79 34.745 34.745 0 005.341-2.79 5.453 5.453 0 001.966-4.378v-8.6A15.478 15.478 0 0046.158 0zm4.173 1.665c.84.011 1.665.063 2.463.137v8.42a4.771 4.771 0 01-1.72 3.858 30.983 30.983 0 01-4.915 2.576 32.045 32.045 0 01-4.917-2.575 4.789 4.789 0 01-1.719-3.858V5.3c3.236-2.965 7.166-3.682 10.807-3.635zm-3.979 3.921a3.071 3.071 0 00-1.713.452v8.284h1.268v-2.676a2.007 2.007 0 00.572.072c1.411 0 2.221-1.272 2.221-3.128s-.835-3-2.352-3zm4.345 0a1.688 1.688 0 00-1.706 1.657c0 .676.19 1.182 1.238 1.8.559.328.785.545.794.944a.676.676 0 01-.762.709 2.028 2.028 0 01-1.215-.517v1.17a2.783 2.783 0 001.4.394 1.719 1.719 0 001.841-1.7c.024-.741-.181-1.3-1.243-1.926-.474-.278-.849-.461-.836-.924s.387-.61.747-.607a1.7 1.7 0 011.139.522V6a2.173 2.173 0 00-1.395-.413zm-10.525.129v4c0 1.347.637 2.029 1.895 2.029a3.378 3.378 0 001.916-.51V5.715h-1.269v4.791a1.067 1.067 0 01-.6.155c-.582 0-.67-.534-.67-.895V5.715h-1.272zm6.185.9c.738 0 1.043.589 1.043 2.013 0 1.39-.35 2.061-1.081 2.061a1.2 1.2 0 01-.413-.077V6.7a1.1 1.1 0 01.451-.092z" fill="#fab80a"/></g><g fill-rule="evenodd"><path d="M60.412 3.16h.078l.131.026.157.026.418.1.575.1.314.079.34.078.366.052.366.1.392.052.392.1 1.255.235.392.1.418.078.365.078.393.078.366.078.366.052.314.079.314.052.261.078.235.053.209.026.183.026.131.026.078.026h.052l.34.078.314.052.262.078.209.052.21.079.157.052.209.1.078.052.131.13v.026l.027.026v.026h1.123l.105.026h.1l.078.026h.078l.078.026.209.1.026.053.183.287.052.34-.052.419-.13.392-.157.392-.157.314-.13.209-.052.078-.052.027-.131.051-.183.079-.262.1-.288.105-.366.156-.392.157-.444.157-.5.209-.523.183-.522.209-1.15.471-.6.235-.6.21-.6.26-.627.236-.6.209-.576.262-.6.21-.549.209-1.046.418-.47.183-.444.157-.392.156-.34.131-.288.131-.235.079-.183.079-.1.026-.026.026h13.513l2.2-10.405H60.412z" fill="#284e80"/><path d="M70.531 6.536l-.079.026-.523.1h-.131l-.1.026h-.1l-.158.027-.078.026-.052.026-.026.053v.052l.053.052h.1l.1.026h.262l.157-.026h.157l.366-.052h.183l.209-.026.183-.025.158-.027.182-.026h.706l.078.026.053.027.052.078v.1l-.026.1-.026.131-.053.157-.078.183-.052.183-.026.1.052.052.052-.026.1-.1.052-.078.078-.131.079-.157.078-.183.078-.156.052-.157.026-.131v-.15l-.052-.131-.078-.078-.1-.078-.131-.052-.157-.026-.182-.026h-1.101l-.026.026h-.024l-.052.026-.053.1-.052.026-.052.052-.078.052z" fill="#284e80"/><path d="M59.916 5.514l-1.726 8 .079-.026.157-.1.261-.1.34-.183.392-.183.445-.235.523-.236.5-.262.523-.235.5-.262.5-.236.47-.235.392-.21.34-.156.262-.13.183-.079.261-.131.236-.131.287-.131.288-.156.262-.131.314-.131.288-.157.314-.13.314-.158 1.568-.653.706-.236.1-.026.1-.051.131-.027.47-.157.55-.157.183-.026.549-.157.314-.052.1-.026.078-.026h.079l.078-.026.052-.052h.026v-.027l-.053-.1-.076-.033-.1-.026h-.1l-.156-.026h-.158l-.183.026-.314.026-.34.052-.366.078-.392.079-.392.1-.418.131-.392.131-.418.13-.392.158-.393.13-.376.13-.34.131-.314.157-.261.1-.235.105-.183.1-.993-3.085h6.326l.026-.13-.1-.131-.157-.078-.235-.078-.262-.078-.68-.1-1.1-.078h-8.262z" fill="#284e80"/><path d="M120.761 8.554h-44.3l.063-.665h44.3z" fill="#ca4256"/><path d="M78.478 7.083l-.34-.026-.34-.078-.262-.078-.235-.157-.156-.183-.1-.236-.026-.261.026-.314.131-.575.1-.523.1-.445.078-.366.052-.314.052-.235.026-.13.034-.053h.863l-.026.1-.052.262-.1.392-.078.445-.1.445-.13.653-.026.078-.026.209v.366l.052.13.1.1.13.078.183.052.209.026.235-.026.175-.017.183-.079.131-.13.1-.13.1-.158.157-.418.026-.209.078-.314.079-.392.078-.418.1-.393.053-.34.052-.236.026-.078h.863l-.157.758-.078.393-.052.13v.052l-.026.157-.078.392-.182.758-.026.156-.078.158-.053.13-.078.13-.1.131-.209.209-.131.079-.156.079-.131.078-.156.052-.157.026-.157.052-.366.053h-.21zm40.209-3.347h-1.228l-.209.052-.156.1-.026.052-.026.079v.1l.026.1.078.1.079.13.235.235.156.1.131.1.157.131.261.262.105.131.156.314.026.156-.026.183-.052.184-.079.183-.131.157-.183.131-.209.1-.262.078-.34.052-.366.026h-1.332l.156-.627h1.412l.131-.026.1-.026.079-.052.079-.1.052-.1-.026-.21-.156-.209-.262-.209-.262-.235-.287-.261-.236-.288-.156-.288-.026-.34.052-.183.105-.209.1-.157.183-.131.235-.1.235-.078.314-.052h1.524zm-3.033 0h-1.96l-.236 1.02h1.726l-.131.549h-1.725l-.21 1.072h1.961l-.131.627h-2.822l.837-3.9h2.824zm-3.4 0h-1.2l-.706 3.266h-.862l.706-3.268h-1.23l.157-.628h3.268zm-6.011 3.266l.34-.627h1.228l-.34-2.484-1.724 3.111h-.863l2.248-3.9h1.02l.6 3.9h-2.51zm-.157-3.268h-1.2l-.708 3.268h-.86l.706-3.268h-1.231l.156-.628h3.269l-.13.628zm-3.739 0h-1.2l-.131.026-.1.026-.079.052-.1.1v.183l.026.1.052.1.1.13.235.235.131.1.157.1.391.392.105.131.1.157.052.157.026.156v.183l-.053.184-.078.183-.157.157-.156.131-.235.1-.262.078-.314.052-.392.026h-1.307l.13-.627h1.438l.131-.026.1-.026.079-.052.078-.1.026-.1-.026-.21-.156-.209-.235-.209-.261-.235-.288-.261-.235-.288-.156-.288-.026-.34.053-.183.078-.209.131-.157.183-.131.21-.1.261-.078.314-.052h1.516l-.157.627zm-7.9 1.307l-.387 1.961h1.752l.209-.026h.21l.365-.1.21-.078.183-.1.314-.209.315-.322.262-.366.1-.209.079-.209.052-.236.026-.1.026-.157.052-.366-.026-.34-.079-.288-.131-.261-.209-.236-.261-.157-.34-.1-.392-.026H94.87zm2.85 0l-.026.131-.079.157-.052.131-.052.157-.079.1-.1.131-.21.21-.262.156-.13.052-.156.052-.315.052h-.784l.261-1.334.288-1.307h1.124l.209.078.157.1.13.156.079.157.052.209v.418l-.052.157v.027zm-3.189-1.307h-1.931l-.235 1.02h1.7l-.105.549h-1.725l-.21 1.072h1.934l-.1.627h-2.827l.837-3.9h2.8zm-3.373 0h-1.224l-.706 3.268h-.836l.706-3.268h-1.229l.13-.628h3.268zm-4.57 3.268h-.837l.81-3.9H87zm-1.673 0h-1.074l-.967-2.9h-.026l-.6 2.9h-.758l.836-3.9h1.1l.942 2.929.6-2.929h.784zm-7.163 5.02h-.1l-.052-.026h-.159l-.052-.026h-.052l-.052-.549h.209l.026.026h.157l.209-.026.314-.1.1-.105.156-.21.052-.1v-.105l.026-.131v-.13l-.026-.105-.052-.078-.156-.105h-.1l-.1-.026h-.706l-.706 3.268h-.863l.837-3.9h1.856l.288.026.209.105.183.13.1.183.052.183.026.209v.21l-.026.183-.078.262-.131.235-.157.209-.209.183-.21.131-.524.159-.288.026zm43.033-1.8h-1.988l-.21 1.02h1.726l-.131.575h-1.724l-.21 1.072h1.961l-.131.6h-2.823l.837-3.9h2.823zm-3.477.052l-.105-.026h-.078l-.209-.052-.132-.026h-.13l-.105-.026h-.156l-.288.026-.262.078-.261.105-.235.183-.183.183-.183.235-.1.288-.1.313-.053.314.026.288.078.235.105.183.156.157.21.131.235.078.261.026h.156l.157-.026h.131l.262-.052h.1l.131-.026.1-.026-.21.654-.1.026h-.135l-.1.026h-.131l-.1.026h-.6l-.418-.052-.183-.052-.183-.079-.156-.079-.156-.1-.131-.1-.131-.132-.079-.156-.078-.183-.079-.156-.026-.209v-.21l.026-.235.026-.262.079-.235.07-.272.209-.418.131-.183.314-.314.183-.131.363-.209.418-.157.21-.052.209-.026.235-.026h.549l.1.026h.105l.1.026h.1l.1.026zm-4.313 3.216h-.863l.837-3.9h.862l-.836 3.9zm-2.772 0h-1.02l-.575-3.9h.863l.392 3.138 1.726-3.138h.832zm-3.163-1.673l.628 1.673h-.947l-.7-2.12h.5l.156-.026.156-.052.131-.079.1-.078.1-.105.052-.13.053-.156.026-.105v-.1l-.052-.157-.052-.052-.1-.052-.262-.052h-.784l-.706 3.268h-.862l.837-3.9h1.8l.261.026.236.052.183.079.131.1.1.131.079.183.026.209v.209l-.026.262-.079.236-.1.209-.131.156-.157.156-.209.105-.183.079-.21.025zm-2.483-1.595h-1.963l-.209 1.02h1.7l-.1.575h-1.731l-.209 1.072h1.961l-.131.6h-2.854l.837-3.9h2.823l-.13.628zm-3.556 0h-1.1l-.262.052-.1.026-.052.052-.083.05-.052.1v.131l.026.105.052.1.1.105.1.131.131.1.131.132.156.1.131.13.156.105.105.156.1.131.1.156.053.131.025.183v.156l-.052.21-.079.156-.314.314-.209.1-.288.079-.313.052h-1.7l.131-.6h1.437l.131-.026.1-.053.079-.052.078-.078.052-.105-.052-.209-.156-.21-.235-.234-.261-.236-.288-.235-.235-.288-.156-.314-.026-.313.052-.21.079-.183.131-.156.183-.131.209-.1.262-.079.314-.052.365-.026h1.151zm-4.653 3.268h-2.643l.811-3.9h.889l-.706 3.295h1.778zm-5.6 0l.34-.6h1.233l-.365-2.51-1.7 3.111h-.865l2.222-3.9h1.046l.6 3.9h-2.51zm-.156-3.268h-1.227l-.706 3.268h-.863l.706-3.268h-1.2l.131-.628h3.268zm-3.739 0h-1.1l-.261.052-.071.028-.078.052-.1.1-.026.052v.131l.026.105.156.209.1.131.131.1.13.132.157.1.157.13.13.105.1.156.131.131.078.156.052.131.052.183-.026.156-.052.21-.078.156-.13.157-.157.156-.235.1-.287.079-.314.052h-1.672l.1-.6h1.464l.1-.026.209-.105.052-.078.052-.105-.022-.196-.157-.21-.235-.235-.288-.236-.262-.235-.235-.288-.157-.314-.052-.313.052-.21.1-.183.132-.154.156-.131.209-.1.287-.079.314-.052.34-.026h1.151l-.13.628zm-7.266 1.33l-.053.419.079.548.157.314.1.156.236.235.156.1.157.079.183.079.209.052.209.026h.445l.418-.052.209-.052.209-.079.183-.079.157-.1.183-.1.157-.132.13-.156.157-.156.1-.183.209-.418.078-.235.052-.262.052-.209v-.395l-.026-.209-.026-.183-.157-.315-.208-.261-.131-.1-.157-.1-.157-.079-.209-.079-.183-.052-.209-.026h-.435l-.418.052-.209.052-.213.071-.183.078-.156.1-.183.131-.157.1-.157.157-.131.183-.131.156-.1.209-.078.21-.078.262-.079.235zm3.268 0l-.078.314-.13.288-.131.235-.182.183-.209.157-.236.131-.235.078-.288.026-.288-.026-.209-.1-.183-.131-.13-.183-.079-.183-.052-.261v-.262l.052-.262.079-.313.13-.288.131-.235.183-.183.209-.183.236-.105.235-.078.288-.026.262.053.235.052.183.157.13.157.078.209.052.235v.262z"/></g></svg>